<svg id="Layer_1" data-name="Layer 1" xmlns="http://www.w3.org/2000/svg" viewBox="0 0 122.34 99.22"><defs><style>.cls-1{fill:#f47b20;}.cls-2{fill:#f16024;}</style></defs><path class="cls-1" d="M51.15,79.85C39,75.6,28.2,70.25,20.61,60S14.2,37.85,23.68,29.13c7.92-7.28,17.47-11,27.87-12.81a113.34,113.34,0,0,1,30-1.53,93.74,93.74,0,0,1,41.8,13.84,5,5,0,0,1,1.78,1.79c-4.12-.54-8.24-1.07-12.36-1.64-11.22-1.55-22.46-2.3-33.73-.57C68.14,29.89,58,33.62,49.41,40.83,43.88,45.47,39.87,51,40,58.61A22.63,22.63,0,0,0,45,72C46.93,74.46,48.89,76.93,51.15,79.85Z" transform="translate(-2.83 -14.39)"/><path class="cls-2" d="M88,52.7c8.07,3.76,15.08,8.87,20.12,16.39,7,10.37,5.4,21.91-4.07,30.13-7.91,6.85-17.25,10.63-27.41,12.55a110.64,110.64,0,0,1-32.74,1.13A91.26,91.26,0,0,1,5,99.58c-.49-.31-1-.66-1.41-1a9.34,9.34,0,0,1-.74-.78c2.37.24,4.35.41,6.33.65,10.55,1.29,21.11,2.71,31.78,2.18C55,99.92,68.11,96.12,79.21,87A22.81,22.81,0,0,0,87.69,73.1c1.25-7.14-1.36-13.17-5.64-18.62-1.92-2.46-4.21-4.63-6.28-7C79.84,49.25,84,50.83,88,52.7Z" transform="translate(-2.83 -14.39)"/></svg>